<svg width="85" height="84" viewBox="0 0 85 84" fill="none" xmlns="http://www.w3.org/2000/svg">
<g id="pepicons-print:arrow-down">
<g id="Group">
<g id="Group_2" opacity="0.2">
<path id="Vector" fill-rule="evenodd" clip-rule="evenodd" d="M47.9139 29.1427C48.5495 28.6128 49.2833 28.2133 50.0733 27.967C50.8633 27.7208 51.6941 27.6326 52.5183 27.7074C53.3424 27.7823 54.1437 28.0188 54.8764 28.4035C55.6091 28.7881 56.2588 29.3133 56.7885 29.9491L70.7871 46.7491C71.3402 47.3814 71.7613 48.1179 72.0256 48.9153C72.2899 49.7126 72.392 50.5548 72.326 51.3923C72.26 52.2298 72.0272 53.0456 71.6412 53.7917C71.2553 54.5378 70.724 55.1993 70.0787 55.7371C69.4333 56.2748 68.6869 56.6781 67.8834 56.9232C67.0799 57.1683 66.2355 57.2502 65.3999 57.1641C64.5642 57.078 63.7543 56.8257 63.0176 56.4219C62.2809 56.0182 61.6324 55.4712 61.1103 54.8131L47.1075 38.0131C46.0386 36.7297 45.5231 35.0743 45.6743 33.411C45.8255 31.7476 46.6311 30.2123 47.9139 29.1427Z" fill="#7A4F0F"/>
<path id="Vector_2" fill-rule="evenodd" clip-rule="evenodd" d="M47.9139 72.4197C46.6311 71.3501 45.8255 69.8149 45.6743 68.1515C45.5231 66.4881 46.0386 64.8328 47.1075 63.5493L61.1103 46.7493C61.6324 46.0913 62.2809 45.5443 63.0176 45.1405C63.7543 44.7368 64.5642 44.4844 65.3999 44.3984C66.2355 44.3123 67.0799 44.3942 67.8834 44.6392C68.6869 44.8843 69.4333 45.2876 70.0787 45.8254C70.724 46.3632 71.2553 47.0246 71.6412 47.7708C72.0272 48.5169 72.26 49.3327 72.326 50.1702C72.392 51.0076 72.2899 51.8498 72.0256 52.6472C71.7613 53.4446 71.3402 54.1811 70.7871 54.8133L56.7885 71.6133C56.2588 72.2491 55.6091 72.7744 54.8764 73.159C54.1437 73.5436 53.3424 73.7801 52.5183 73.855C51.6941 73.9299 50.8633 73.8417 50.0733 73.5954C49.2833 73.3492 48.5495 72.9497 47.9139 72.4197Z" fill="#7A4F0F"/>
<path id="Vector_3" fill-rule="evenodd" clip-rule="evenodd" d="M63.8484 50.7811C63.8484 52.4519 63.1847 54.0543 62.0032 55.2358C60.8217 56.4173 59.2193 57.0811 57.5485 57.0811H23.9484C22.2776 57.0811 20.6751 56.4173 19.4937 55.2358C18.3122 54.0543 17.6484 52.4519 17.6484 50.7811C17.6484 49.1102 18.3122 47.5078 19.4937 46.3263C20.6751 45.1448 22.2776 44.481 23.9484 44.481H57.5485C59.2193 44.481 60.8217 45.1448 62.0032 46.3263C63.1847 47.5078 63.8484 49.1102 63.8484 50.7811Z" fill="#7A4F0F"/>
</g>
<path id="Vector_4" fill-rule="evenodd" clip-rule="evenodd" d="M48.5061 23.5874C48.9339 23.2311 49.4857 23.0593 50.0402 23.1097C50.5946 23.1601 51.1064 23.4286 51.4629 23.8562L65.4615 40.6562C65.8023 41.0857 65.9616 41.6314 65.9054 42.1767C65.8492 42.7221 65.582 43.2238 65.1609 43.5748C64.7397 43.9258 64.198 44.0981 63.6515 44.055C63.1049 44.0119 62.5969 43.7569 62.2359 43.3442L48.2373 26.5442C47.881 26.1164 47.7092 25.5646 47.7596 25.0102C47.81 24.4557 48.0785 23.944 48.5061 23.5874Z" fill="#7A4F0F"/>
<path id="Vector_5" fill-rule="evenodd" clip-rule="evenodd" d="M48.5061 60.4131C48.0785 60.0565 47.81 59.5448 47.7596 58.9903C47.7092 58.4358 47.881 57.8841 48.2373 57.4563L62.2359 40.6563C62.5969 40.2436 63.1049 39.9885 63.6515 39.9455C64.198 39.9024 64.7397 40.0747 65.1609 40.4257C65.582 40.7767 65.8492 41.2784 65.9054 41.8238C65.9616 42.3691 65.8023 42.9148 65.4615 43.3443L51.4629 60.1443C51.1064 60.5719 50.5946 60.8404 50.0402 60.8908C49.4857 60.9412 48.9339 60.7694 48.5061 60.4131Z" fill="#7A4F0F"/>
<path id="Vector_6" fill-rule="evenodd" clip-rule="evenodd" d="M63.848 42.0006C63.848 42.5575 63.6268 43.0917 63.233 43.4855C62.8391 43.8793 62.305 44.1006 61.748 44.1006H21.848C21.2911 44.1006 20.7569 43.8793 20.3631 43.4855C19.9693 43.0917 19.748 42.5575 19.748 42.0006C19.748 41.4436 19.9693 40.9095 20.3631 40.5157C20.7569 40.1218 21.2911 39.9006 21.848 39.9006H61.748C62.305 39.9006 62.8391 40.1218 63.233 40.5157C63.6268 40.9095 63.848 41.4436 63.848 42.0006Z" fill="#7A4F0F"/>
</g>
</g>
</svg>
