<svg width="85" height="84" viewBox="0 0 85 84" fill="none" xmlns="http://www.w3.org/2000/svg">
<g id="pepicons-print:arrow-down">
<g id="Group">
<g id="Group_2" opacity="0.2">
<path id="Vector" fill-rule="evenodd" clip-rule="evenodd" d="M37.7834 72.8573C37.1478 73.3872 36.414 73.7867 35.624 74.033C34.8339 74.2792 34.0031 74.3674 33.179 74.2926C32.3549 74.2177 31.5536 73.9812 30.8209 73.5965C30.0882 73.2119 29.4384 72.6867 28.9088 72.0509L14.9102 55.2509C14.357 54.6186 13.9359 53.8821 13.6717 53.0847C13.4074 52.2874 13.3052 51.4452 13.3712 50.6077C13.4373 49.7702 13.6701 48.9544 14.056 48.2083C14.442 47.4622 14.9732 46.8007 15.6186 46.2629C16.2639 45.7252 17.0103 45.3219 17.8138 45.0768C18.6174 44.8317 19.4618 44.7498 20.2974 44.8359C21.133 44.922 21.943 45.1743 22.6797 45.5781C23.4163 45.9818 24.0648 46.5288 24.587 47.1869L38.5898 63.9869C39.6587 65.2703 40.1742 66.9257 40.0229 68.589C39.8717 70.2524 39.0662 71.7877 37.7834 72.8573Z" fill="#7A4F0F"/>
<path id="Vector_2" fill-rule="evenodd" clip-rule="evenodd" d="M37.7834 29.5803C39.0662 30.6499 39.8717 32.1851 40.0229 33.8485C40.1742 35.5119 39.6587 37.1672 38.5898 38.4507L24.587 55.2507C24.0648 55.9087 23.4163 56.4557 22.6797 56.8595C21.943 57.2632 21.133 57.5156 20.2974 57.6016C19.4618 57.6877 18.6174 57.6058 17.8138 57.3608C17.0103 57.1157 16.2639 56.7124 15.6186 56.1746C14.9732 55.6368 14.442 54.9754 14.056 54.2292C13.6701 53.4831 13.4373 52.6673 13.3712 51.8298C13.3052 50.9924 13.4074 50.1502 13.6717 49.3528C13.9359 48.5554 14.357 47.8189 14.9102 47.1867L28.9088 30.3867C29.4384 29.7509 30.0882 29.2256 30.8209 28.841C31.5536 28.4564 32.3549 28.2199 33.179 28.145C34.0031 28.0701 34.8339 28.1583 35.624 28.4046C36.414 28.6508 37.1478 29.0503 37.7834 29.5803Z" fill="#7A4F0F"/>
<path id="Vector_3" fill-rule="evenodd" clip-rule="evenodd" d="M21.8488 51.2189C21.8488 49.5481 22.5126 47.9457 23.694 46.7642C24.8755 45.5827 26.478 44.9189 28.1488 44.9189L61.7488 44.9189C63.4197 44.9189 65.0221 45.5827 66.2036 46.7642C67.3851 47.9457 68.0488 49.5481 68.0488 51.2189C68.0488 52.8898 67.3851 54.4922 66.2036 55.6737C65.0221 56.8552 63.4197 57.519 61.7488 57.519L28.1488 57.519C26.478 57.519 24.8755 56.8552 23.694 55.6737C22.5126 54.4922 21.8488 52.8898 21.8488 51.2189Z" fill="#7A4F0F"/>
</g>
<path id="Vector_4" fill-rule="evenodd" clip-rule="evenodd" d="M37.1911 60.4126C36.7633 60.7689 36.2115 60.9407 35.6571 60.8903C35.1026 60.8399 34.5909 60.5714 34.2343 60.1438L20.2357 43.3438C19.895 42.9143 19.7357 42.3686 19.7918 41.8233C19.848 41.2779 20.1152 40.7762 20.5364 40.4252C20.9576 40.0742 21.4993 39.9019 22.0458 39.945C22.5923 39.9881 23.1004 40.2431 23.4613 40.6558L37.4599 57.4558C37.8162 57.8836 37.9881 58.4354 37.9377 58.9898C37.8873 59.5443 37.6187 60.056 37.1911 60.4126Z" fill="#7A4F0F"/>
<path id="Vector_5" fill-rule="evenodd" clip-rule="evenodd" d="M37.1911 23.5869C37.6187 23.9435 37.8873 24.4552 37.9377 25.0097C37.9881 25.5642 37.8162 26.1159 37.4599 26.5437L23.4613 43.3437C23.1004 43.7564 22.5923 44.0115 22.0458 44.0545C21.4993 44.0976 20.9576 43.9253 20.5364 43.5743C20.1152 43.2233 19.848 42.7216 19.7918 42.1762C19.7357 41.6309 19.895 41.0852 20.2357 40.6557L34.2343 23.8557C34.5909 23.4281 35.1026 23.1596 35.6571 23.1092C36.2115 23.0588 36.7633 23.2306 37.1911 23.5869Z" fill="#7A4F0F"/>
<path id="Vector_6" fill-rule="evenodd" clip-rule="evenodd" d="M21.8492 41.9994C21.8492 41.4425 22.0705 40.9083 22.4643 40.5145C22.8581 40.1207 23.3923 39.8994 23.9492 39.8994L63.8492 39.8994C64.4062 39.8994 64.9403 40.1207 65.3341 40.5145C65.728 40.9083 65.9492 41.4425 65.9492 41.9994C65.9492 42.5564 65.728 43.0905 65.3341 43.4843C64.9403 43.8782 64.4062 44.0994 63.8492 44.0994L23.9492 44.0994C23.3923 44.0994 22.8581 43.8782 22.4643 43.4843C22.0705 43.0905 21.8492 42.5564 21.8492 41.9994Z" fill="#7A4F0F"/>
</g>
</g>
</svg>
